# Blender v3.0.1 OBJ File: 'Barrels.blend'
# www.blender.org
mtllib Barrel7.mtl
o Barrel_7_Cylinder.007
v 18.092400 0.003505 0.078790
v 18.092400 3.128430 0.078790
v 18.120186 0.003505 -0.236380
v 18.120186 3.128430 -0.236380
v 18.254091 0.003505 -0.523038
v 18.254091 3.128430 -0.523038
v 18.477964 0.003505 -0.746611
v 18.477964 3.128430 -0.746611
v 18.764803 0.003505 -0.880131
v 18.764803 3.128430 -0.880131
v 19.080011 0.003505 -0.907495
v 19.080011 3.128430 -0.907495
v 19.385567 0.003505 -0.825401
v 19.385567 3.128430 -0.825401
v 19.644617 0.003505 -0.643751
v 19.644617 3.128430 -0.643751
v 19.825918 0.003505 -0.384456
v 19.825918 3.128430 -0.384456
v 19.907600 0.003505 -0.078790
v 19.907600 3.128430 -0.078790
v 19.879814 0.003505 0.236380
v 19.879814 3.128430 0.236380
v 19.745909 0.003505 0.523038
v 19.745909 3.128430 0.523038
v 19.522034 0.003505 0.746611
v 19.522034 3.128430 0.746611
v 19.235197 0.003505 0.880131
v 19.235197 3.128430 0.880131
v 18.919991 0.003505 0.907495
v 18.919991 3.128430 0.907495
v 18.614433 0.003505 0.825401
v 18.614433 3.128430 0.825401
v 18.355383 0.003505 0.643752
v 18.355383 3.128430 0.643752
v 18.174082 0.003505 0.384456
v 18.174082 3.128430 0.384456
v 18.003746 0.003505 0.086486
v 18.034248 0.003505 -0.259468
v 18.034248 3.128430 -0.259468
v 18.003746 3.128430 0.086486
v 18.181234 0.003505 -0.574127
v 18.181234 3.128430 -0.574127
v 18.426975 0.003505 -0.819538
v 18.426975 3.128430 -0.819538
v 18.741831 0.003505 -0.966100
v 18.741831 3.128430 -0.966100
v 19.087826 0.003505 -0.996136
v 19.087826 3.128430 -0.996136
v 19.423227 0.003505 -0.906023
v 19.423227 3.128430 -0.906023
v 19.707582 0.003505 -0.706631
v 19.707582 3.128430 -0.706631
v 19.906591 0.003505 -0.422009
v 19.906591 3.128430 -0.422009
v 19.996254 0.003505 -0.086486
v 19.996254 3.128430 -0.086486
v 19.965752 0.003505 0.259468
v 19.965752 3.128430 0.259468
v 19.818766 0.003505 0.574127
v 19.818766 3.128430 0.574127
v 19.573025 0.003505 0.819538
v 19.573025 3.128430 0.819538
v 19.258169 0.003505 0.966100
v 19.258169 3.128430 0.966100
v 18.912174 0.003505 0.996136
v 18.912174 3.128430 0.996136
v 18.576773 0.003505 0.906023
v 18.576773 3.128430 0.906023
v 18.292418 0.003505 0.706631
v 18.292418 3.128430 0.706631
v 18.093409 0.003505 0.422009
v 18.093409 3.128430 0.422009
v 18.092400 0.089467 0.078790
v 18.120186 0.089467 -0.236380
v 18.254091 0.089467 -0.523038
v 18.477964 0.089467 -0.746611
v 18.764803 0.089467 -0.880131
v 19.080011 0.089467 -0.907495
v 19.385567 0.089467 -0.825401
v 19.644617 0.089467 -0.643751
v 19.825918 0.089467 -0.384456
v 19.907600 0.089467 -0.078790
v 19.879814 0.089467 0.236380
v 19.745909 0.089467 0.523038
v 19.522034 0.089467 0.746611
v 19.235197 0.089467 0.880131
v 18.919991 0.089467 0.907495
v 18.614433 0.089467 0.825401
v 18.355383 0.089467 0.643752
v 18.174082 0.089467 0.384456
v 18.120186 2.916060 -0.236380
v 18.092400 2.916060 0.078790
v 18.254091 2.916060 -0.523038
v 18.477964 2.916060 -0.746611
v 18.764803 2.916060 -0.880131
v 19.080011 2.916060 -0.907495
v 19.385567 2.916060 -0.825401
v 19.644617 2.916060 -0.643751
v 19.825918 2.916060 -0.384456
v 19.907600 2.916060 -0.078790
v 19.879814 2.916060 0.236380
v 19.745909 2.916060 0.523038
v 19.522034 2.916060 0.746611
v 19.235197 2.916060 0.880131
v 18.919991 2.916060 0.907495
v 18.614433 2.916060 0.825401
v 18.355383 2.916060 0.643752
v 18.174082 2.916060 0.384456
v 17.998810 0.951140 0.086914
v 17.998810 0.871101 0.086914
v 17.998810 2.260834 0.086914
v 17.998810 2.180795 0.086914
v 18.029463 2.180795 -0.260754
v 18.029463 2.260834 -0.260754
v 18.029463 0.871101 -0.260754
v 18.029463 0.951140 -0.260754
v 18.177176 2.180795 -0.576972
v 18.177176 2.260834 -0.576972
v 18.177176 0.871101 -0.576972
v 18.177176 0.951140 -0.576972
v 18.424135 2.180795 -0.823599
v 18.424135 2.260834 -0.823599
v 18.424135 0.871101 -0.823599
v 18.424135 0.951140 -0.823599
v 18.740551 2.180795 -0.970888
v 18.740551 2.260834 -0.970888
v 18.740551 0.871101 -0.970888
v 18.740551 0.951140 -0.970888
v 19.088261 2.180795 -1.001073
v 19.088261 2.260834 -1.001073
v 19.088261 0.871101 -1.001073
v 19.088261 0.951140 -1.001073
v 19.425325 2.180795 -0.910514
v 19.425325 2.260834 -0.910514
v 19.425325 0.871101 -0.910514
v 19.425325 0.951140 -0.910514
v 19.711088 2.180795 -0.710133
v 19.711088 2.260834 -0.710133
v 19.711088 0.871101 -0.710133
v 19.711088 0.951140 -0.710133
v 19.911085 2.180795 -0.424100
v 19.911085 2.260834 -0.424100
v 19.911085 0.871101 -0.424100
v 19.911085 0.951140 -0.424100
v 20.001190 2.180795 -0.086914
v 20.001190 2.260834 -0.086914
v 20.001190 0.871101 -0.086914
v 20.001190 0.951140 -0.086914
v 19.970537 2.180795 0.260754
v 19.970537 2.260834 0.260754
v 19.970537 0.871101 0.260754
v 19.970537 0.951140 0.260754
v 19.822824 2.180795 0.576972
v 19.822824 2.260834 0.576972
v 19.822824 0.871101 0.576972
v 19.822824 0.951140 0.576972
v 19.575865 2.180795 0.823599
v 19.575865 2.260834 0.823599
v 19.575865 0.871101 0.823599
v 19.575865 0.951140 0.823599
v 19.259449 2.180795 0.970888
v 19.259449 2.260834 0.970888
v 19.259449 0.871101 0.970888
v 19.259449 0.951140 0.970888
v 18.911739 2.180795 1.001073
v 18.911739 2.260834 1.001073
v 18.911739 0.871101 1.001073
v 18.911739 0.951140 1.001073
v 18.574675 2.180795 0.910514
v 18.574675 2.260834 0.910514
v 18.574675 0.871101 0.910514
v 18.574675 0.951140 0.910514
v 18.288912 2.180795 0.710133
v 18.288912 2.260834 0.710133
v 18.288912 0.871101 0.710133
v 18.288912 0.951140 0.710133
v 18.088915 2.180795 0.424100
v 18.088915 2.260834 0.424100
v 18.088915 0.871101 0.424100
v 18.088915 0.951140 0.424100
v 18.070478 2.223178 0.432682
v 17.978550 2.223178 0.088673
v 18.274523 2.223178 0.724503
v 18.566069 2.223178 0.928938
v 18.909954 2.223178 1.021330
v 19.264700 2.223178 0.990534
v 19.587519 2.223178 0.840265
v 19.839474 2.223178 0.588648
v 19.990177 2.223178 0.266031
v 20.021450 2.223178 -0.088673
v 19.929522 2.223178 -0.432682
v 19.725477 2.223178 -0.724503
v 19.433931 2.223178 -0.928938
v 19.090046 2.223178 -1.021330
v 18.735300 2.223178 -0.990534
v 18.412481 2.223178 -0.840265
v 18.160526 2.223178 -0.588648
v 18.009823 2.223178 -0.266031
v 18.070478 0.908756 0.432682
v 17.978550 0.908757 0.088673
v 18.274523 0.908756 0.724503
v 18.566069 0.908756 0.928938
v 18.909954 0.908756 1.021330
v 19.264700 0.908756 0.990534
v 19.587519 0.908756 0.840265
v 19.839474 0.908756 0.588648
v 19.990177 0.908756 0.266031
v 20.021450 0.908756 -0.088673
v 19.929522 0.908756 -0.432682
v 19.725477 0.908756 -0.724503
v 19.433931 0.908756 -0.928938
v 19.090046 0.908756 -1.021330
v 18.735300 0.908756 -0.990534
v 18.412481 0.908756 -0.840265
v 18.160526 0.908756 -0.588648
v 18.009823 0.908756 -0.266031
v 18.449039 3.322757 -0.824392
v 18.466515 3.349666 -0.832898
v 18.421160 3.337020 -0.910999
v 18.442799 3.361799 -0.906572
v 18.462837 3.340835 -0.993034
v 18.478254 3.365044 -0.976357
v 18.549660 3.331968 -1.022443
v 18.552111 3.357501 -1.001374
v 18.630766 3.315613 -0.981998
v 18.621103 3.343589 -0.966968
v 18.658644 3.301350 -0.895391
v 18.644819 3.331455 -0.893295
v 18.616966 3.297535 -0.813355
v 18.609365 3.328210 -0.823510
v 18.530146 3.306402 -0.783946
v 18.535509 3.335753 -0.798493
v 18.970818 3.082124 0.557601
v 18.974081 3.105044 0.560325
v 18.961435 3.086924 0.528455
v 18.964699 3.109844 0.531179
v 18.975460 3.088207 0.500847
v 18.978725 3.111128 0.503571
v 19.004679 3.085223 0.490950
v 19.007942 3.108144 0.493674
v 19.031973 3.079719 0.504561
v 19.035236 3.102640 0.507285
v 19.041355 3.074919 0.533707
v 19.044619 3.097840 0.536431
v 19.027330 3.073635 0.561315
v 19.030594 3.096556 0.564039
v 18.998112 3.076619 0.571212
v 19.001375 3.099540 0.573936
v 17.857462 3.287529 -0.227537
v 17.899992 3.244563 0.083025
v 17.923651 3.314732 -0.535730
v 18.090578 3.322893 -0.804381
v 18.338106 3.311026 -1.001086
v 18.636381 3.280562 -1.102119
v 18.949427 3.235177 -1.095296
v 19.239485 3.180344 -0.981438
v 19.471571 3.122678 -0.774279
v 19.617691 3.069132 -0.498805
v 19.660219 3.026166 -0.188243
v 19.594030 2.998963 0.119950
v 19.427103 2.990803 0.388601
v 19.179575 3.002670 0.585306
v 18.881300 3.033133 0.686339
v 18.568254 3.078518 0.679516
v 18.278196 3.133351 0.565658
v 18.046110 3.191017 0.358499
v 17.865776 3.345923 -0.220597
v 17.908306 3.302957 0.089965
v 17.931967 3.373127 -0.528790
v 18.098892 3.381287 -0.797441
v 18.346420 3.369420 -0.994146
v 18.644695 3.338957 -1.095179
v 18.957741 3.293571 -1.088356
v 19.247799 3.238739 -0.974498
v 19.479885 3.181072 -0.767339
v 19.626005 3.127526 -0.491865
v 19.668535 3.084561 -0.181302
v 19.602345 3.057357 0.126890
v 19.435419 3.049197 0.395541
v 19.187891 3.061064 0.592246
v 18.889614 3.091527 0.693280
v 18.576569 3.136912 0.686456
v 18.286510 3.191745 0.572598
v 18.054426 3.249412 0.365440
v 18.425068 3.364462 -0.907737
v 18.452946 3.350199 -0.821130
v 18.466745 3.368278 -0.989773
v 18.553566 3.359410 -1.019182
v 18.634672 3.343055 -0.978736
v 18.662552 3.328792 -0.892130
v 18.620874 3.324977 -0.810094
v 18.534052 3.333844 -0.780685
v 18.441526 3.352863 -0.907634
v 18.465242 3.340730 -0.833960
v 18.476982 3.356109 -0.977419
v 18.550837 3.348566 -1.002436
v 18.619831 3.334653 -0.968030
v 18.643547 3.322520 -0.894357
v 18.608093 3.319274 -0.824572
v 18.534237 3.326817 -0.799555
vt 0.954022 0.979488
vt 0.973069 0.984735
vt 0.951248 0.985532
vt 0.970627 0.978578
vt 0.988172 0.968920
vt 0.981910 0.949232
vt 0.988172 0.947044
vt 0.970159 0.937425
vt 0.972967 0.931394
vt 0.953592 0.938231
vt 0.951130 0.932074
vt 0.936266 0.948102
vt 0.955261 0.976450
vt 0.968450 0.974029
vt 0.969288 0.975543
vt 0.942293 0.950837
vt 0.935946 0.969946
vt 0.920615 0.944380
vt 0.928457 0.943279
vt 0.922400 0.949451
vt 0.923323 0.936321
vt 0.928457 0.934663
vt 0.922758 0.928331
vt 0.915917 0.933238
vt 0.914132 0.928168
vt 0.908075 0.934339
vt 0.913209 0.941297
vt 0.908075 0.942955
vt 0.920269 0.933056
vt 0.916263 0.944562
vt 0.913774 0.949287
vt 0.979053 0.964881
vt 0.982135 0.966163
vt 0.978815 0.950424
vt 0.968899 0.940453
vt 0.954949 0.941249
vt 0.945325 0.966620
vt 0.945383 0.952128
vt 0.942232 0.967793
vt 0.889071 0.968037
vt 0.899327 0.957781
vt 0.913830 0.992796
vt 0.955765 0.974818
vt 0.947052 0.952670
vt 0.968378 0.942080
vt 0.977386 0.964346
vt 0.946889 0.965885
vt 0.955799 0.942751
vt 0.977251 0.951168
vt 0.923567 0.940987
vt 0.912966 0.936631
vt 0.913830 0.957781
vt 0.924085 0.968037
vt 0.924085 0.982540
vt 0.899327 0.992796
vt 0.889071 0.982540
vt 0.057889 0.338839
vt 0.197444 0.284666
vt 0.197444 0.338839
vt 0.212200 0.338839
vt 0.424761 0.284666
vt 0.424761 0.338839
vt 0.212200 0.284666
vt 0.424761 0.230242
vt 0.212200 0.230242
vt 0.424761 0.175464
vt 0.212200 0.175464
vt 0.424761 0.120210
vt 0.212200 0.120210
vt 0.424761 0.064385
vt 0.212200 0.064385
vt 0.424761 0.007444
vt 0.212200 0.989372
vt 0.424761 0.932540
vt 0.424761 0.989372
vt 0.212200 0.932540
vt 0.424761 0.877240
vt 0.212200 0.877240
vt 0.424761 0.822396
vt 0.212200 0.822396
vt 0.424761 0.767944
vt 0.212200 0.767944
vt 0.424761 0.713789
vt 0.212200 0.713789
vt 0.424761 0.659841
vt 0.212200 0.659841
vt 0.424761 0.606031
vt 0.212200 0.606031
vt 0.424761 0.552689
vt 0.212200 0.552689
vt 0.424761 0.499522
vt 0.043933 0.767944
vt 0.008904 0.713789
vt 0.043933 0.713789
vt 0.212200 0.499522
vt 0.424761 0.446346
vt 0.057889 0.392808
vt 0.197444 0.392808
vt 0.592883 0.877240
vt 0.606957 0.932540
vt 0.592883 0.932540
vt 0.424761 0.392808
vt 0.057889 0.446346
vt 0.197444 0.446346
vt 0.579247 0.499522
vt 0.439521 0.446346
vt 0.579247 0.446346
vt 0.057889 0.499522
vt 0.197444 0.499522
vt 0.439521 0.552689
vt 0.579247 0.552689
vt 0.057889 0.552689
vt 0.197444 0.552689
vt 0.439521 0.606031
vt 0.579247 0.606031
vt 0.057889 0.606031
vt 0.197444 0.606031
vt 0.439521 0.659841
vt 0.579247 0.659841
vt 0.057889 0.659841
vt 0.197444 0.659841
vt 0.439521 0.713789
vt 0.579247 0.713789
vt 0.057889 0.713789
vt 0.197444 0.713789
vt 0.439521 0.767944
vt 0.579247 0.767944
vt 0.057889 0.767944
vt 0.197444 0.767944
vt 0.439521 0.822396
vt 0.579247 0.822396
vt 0.057889 0.822396
vt 0.197444 0.822396
vt 0.439521 0.877240
vt 0.579247 0.877240
vt 0.057889 0.877240
vt 0.197444 0.877240
vt 0.439521 0.932540
vt 0.579247 0.932540
vt 0.057889 0.932540
vt 0.197444 0.932540
vt 0.579247 0.989372
vt 0.057889 0.989372
vt 0.197444 0.989372
vt 0.439521 0.064385
vt 0.579247 0.007444
vt 0.579247 0.064385
vt 0.057889 0.064385
vt 0.197444 0.007444
vt 0.197444 0.064385
vt 0.439521 0.120210
vt 0.579247 0.120210
vt 0.197444 0.120210
vt 0.439521 0.175464
vt 0.579247 0.175464
vt 0.057889 0.175464
vt 0.197444 0.175464
vt 0.439521 0.230242
vt 0.579247 0.230242
vt 0.197444 0.230242
vt 0.439521 0.284666
vt 0.579247 0.284666
vt 0.057889 0.230242
vt 0.439521 0.338839
vt 0.579247 0.338839
vt 0.579247 0.392808
vt 0.212200 0.446346
vt 0.592883 0.338839
vt 0.043933 0.338839
vt 0.043933 0.392808
vt 0.592883 0.284666
vt 0.043933 0.284666
vt 0.592883 0.230242
vt 0.043933 0.230242
vt 0.057889 0.284666
vt 0.592883 0.175464
vt 0.043933 0.175464
vt 0.592883 0.120210
vt 0.043933 0.120210
vt 0.592883 0.064385
vt 0.043933 0.064385
vt 0.057889 0.120210
vt 0.592883 0.007444
vt 0.057889 0.007444
vt 0.592883 0.989372
vt 0.043933 0.989372
vt 0.043933 0.932540
vt 0.592883 0.822396
vt 0.043933 0.877240
vt 0.592883 0.767944
vt 0.043933 0.822396
vt 0.592883 0.713789
vt 0.592883 0.659841
vt 0.043933 0.659841
vt 0.592883 0.606031
vt 0.592883 0.552689
vt 0.043933 0.552689
vt 0.043933 0.606031
vt 0.592883 0.499522
vt 0.043933 0.499522
vt 0.592883 0.446346
vt 0.043933 0.446346
vt 0.592883 0.392808
vt 0.692969 0.020874
vt 0.815689 0.065541
vt 0.662415 0.194153
vt 0.606957 0.713789
vt 0.606957 0.338839
vt 0.606957 0.499522
vt 0.606957 0.120210
vt 0.606957 0.877240
vt 0.606957 0.659841
vt 0.606957 0.284666
vt 0.606957 0.446346
vt 0.606957 0.064385
vt 0.606957 0.822396
vt 0.606957 0.606031
vt 0.606957 0.230242
vt 0.606957 0.989372
vt 0.606957 0.767944
vt 0.606957 0.392808
vt 0.606957 0.552689
vt 0.606957 0.175464
vt 0.858129 0.890595
vt 0.745859 0.984801
vt 0.633589 0.890595
vt 0.008904 0.338839
vt 0.008904 0.499522
vt 0.008904 0.120210
vt 0.008904 0.877240
vt 0.008904 0.659841
vt 0.008904 0.284666
vt 0.008904 0.446346
vt 0.008904 0.064385
vt 0.008904 0.822396
vt 0.008904 0.606031
vt 0.008904 0.230242
vt 0.008904 0.392808
vt 0.008904 0.007444
vt 0.043933 0.007444
vt 0.008904 0.767944
vt 0.008904 0.552689
vt 0.008904 0.175464
vt 0.008904 0.932540
vt 0.432657 0.446346
vt 0.439521 0.392808
vt 0.204305 0.392808
vt 0.204305 0.446346
vt 0.432657 0.499522
vt 0.439521 0.499522
vt 0.204305 0.499522
vt 0.432657 0.552689
vt 0.204305 0.552689
vt 0.432657 0.606031
vt 0.204305 0.606031
vt 0.432657 0.659841
vt 0.204305 0.659841
vt 0.432657 0.713789
vt 0.204305 0.713789
vt 0.432657 0.767944
vt 0.204305 0.767944
vt 0.432657 0.822396
vt 0.204305 0.822396
vt 0.432657 0.877240
vt 0.204305 0.877240
vt 0.432657 0.932540
vt 0.204305 0.932540
vt 0.432657 0.989372
vt 0.439521 0.989372
vt 0.204305 0.989372
vt 0.432657 0.064385
vt 0.439521 0.007444
vt 0.204305 0.064385
vt 0.212200 0.007444
vt 0.432657 0.120210
vt 0.204305 0.120210
vt 0.432657 0.175464
vt 0.204305 0.175464
vt 0.432657 0.230242
vt 0.204305 0.230242
vt 0.432657 0.284666
vt 0.204305 0.284666
vt 0.432657 0.338839
vt 0.204305 0.338839
vt 0.432657 0.392808
vt 0.212200 0.392808
vt 0.662736 0.568711
vt 0.775007 0.374253
vt 0.848286 0.501176
vt 0.769549 0.314984
vt 0.842828 0.188061
vt 0.980548 0.238187
vt 0.958632 0.618649
vt 0.939993 0.587379
vt 0.964552 0.614957
vt 0.869964 0.571264
vt 0.832418 0.570619
vt 0.869846 0.564110
vt 0.834467 0.763145
vt 0.799650 0.752800
vt 0.803864 0.747241
vt 0.970802 0.650855
vt 0.977665 0.649512
vt 0.907119 0.570326
vt 0.904985 0.577059
vt 0.781082 0.721562
vt 0.775161 0.725237
vt 0.970737 0.685438
vt 0.977665 0.686617
vt 0.762161 0.690675
vt 0.769038 0.689337
vt 0.958414 0.717991
vt 0.964527 0.721545
vt 0.768998 0.654564
vt 0.762027 0.653415
vt 0.939878 0.749888
vt 0.935344 0.744405
vt 0.774969 0.618172
vt 0.781153 0.621688
vt 0.906811 0.768161
vt 0.904375 0.761448
vt 0.804060 0.594839
vt 0.799436 0.589384
vt 0.869500 0.774504
vt 0.869250 0.767410
vt 0.935780 0.592952
vt 0.834921 0.577338
vt 0.832478 0.769876
vt 0.727713 0.014748
vt 0.762457 0.020874
vt 0.793011 0.038514
vt 0.827756 0.098693
vt 0.827756 0.133974
vt 0.815689 0.167127
vt 0.793011 0.194153
vt 0.762457 0.211793
vt 0.727713 0.217920
vt 0.692969 0.211793
vt 0.639737 0.167127
vt 0.627670 0.133974
vt 0.627670 0.098693
vt 0.639737 0.065541
vt 0.662415 0.038514
vt 0.606957 0.007444
vt 0.647130 0.813797
vt 0.672580 0.783468
vt 0.706868 0.763671
vt 0.745859 0.756796
vt 0.784850 0.763671
vt 0.819138 0.783468
vt 0.844588 0.813797
vt 0.858129 0.851002
vt 0.844588 0.927800
vt 0.819138 0.958129
vt 0.784850 0.977925
vt 0.706868 0.977925
vt 0.672580 0.958129
vt 0.647130 0.927800
vt 0.633589 0.851002
vt 0.008904 0.989372
vt 0.432657 0.007444
vt 0.204305 0.007444
vt 0.809295 0.568711
vt 0.775007 0.588507
vt 0.736016 0.595382
vt 0.697025 0.588507
vt 0.637287 0.538381
vt 0.623746 0.501176
vt 0.623746 0.461583
vt 0.637287 0.424379
vt 0.662737 0.394049
vt 0.697025 0.374253
vt 0.736016 0.367377
vt 0.809295 0.394049
vt 0.834745 0.424379
vt 0.848286 0.461583
vt 0.834745 0.538381
vt 0.994089 0.314984
vt 0.980548 0.352189
vt 0.881819 0.409190
vt 0.955098 0.382518
vt 0.920810 0.402315
vt 0.842828 0.402315
vt 0.808540 0.382518
vt 0.783090 0.352189
vt 0.769549 0.275391
vt 0.783090 0.238186
vt 0.808540 0.207857
vt 0.881819 0.181185
vt 0.920810 0.188060
vt 0.955098 0.207857
vt 0.994089 0.275391
vn -0.9427 0.0962 0.3193
vn -0.8807 0.1777 -0.4392
vn -0.3027 0.1549 -0.9404
vn 0.4526 0.0414 -0.8908
vn 0.9427 -0.0964 -0.3193
vn 0.8807 -0.1775 0.4392
vn 0.9428 -0.0959 -0.3193
vn 0.3027 -0.1549 0.9404
vn -0.4526 -0.0415 0.8908
vn -0.9427 0.0964 0.3193
vn -0.8807 0.1777 -0.4391
vn 0.8807 -0.1776 0.4391
vn 0.1400 0.9832 0.1169
vn 0.3027 -0.1548 0.9404
vn 0.1400 0.9832 0.1168
vn 0.4526 0.0415 -0.8908
vn -0.8807 0.1773 -0.4392
vn -0.3027 0.1548 -0.9404
vn 0.3027 -0.1550 0.9404
vn -0.9428 0.0962 0.3193
vn -0.8807 0.1776 -0.4392
vn 0.9427 -0.0962 -0.3193
vn 0.9427 -0.0968 -0.3193
vn -0.4526 -0.0414 0.8908
vn -0.8807 0.1775 -0.4392
vn 0.9427 -0.0963 -0.3193
vn 0.8807 -0.1775 0.4391
vn 0.1401 0.9832 0.1169
vn 0.4525 0.0415 -0.8908
vn -0.8806 0.1778 -0.4391
vn -0.4525 -0.0414 0.8908
vn 0.8807 -0.1773 0.4392
vn -0.9428 0.0961 0.3193
vn -0.7150 0.6721 -0.1921
vn -0.7918 0.2545 -0.5552
vn -0.9339 0.2545 -0.2509
vn -0.9405 -0.2273 -0.2527
vn -0.7973 0.2273 -0.5591
vn -0.9405 0.2273 -0.2527
vn -0.7973 -0.2273 -0.5591
vn -0.5580 0.2273 -0.7981
vn -0.5580 -0.2273 -0.7981
vn -0.2514 0.2273 -0.9408
vn -0.2514 -0.2273 -0.9408
vn 0.0855 0.2273 -0.9700
vn 0.0855 -0.2273 -0.9700
vn 0.4121 0.2273 -0.8823
vn 0.4121 -0.2273 -0.8823
vn 0.6890 0.2273 -0.6881
vn 0.6890 -0.2273 -0.6881
vn 0.8828 0.2273 -0.4110
vn 0.8828 -0.2273 -0.4109
vn 0.9702 0.2273 -0.0842
vn 0.9702 -0.2273 -0.0842
vn 0.9405 0.2273 0.2527
vn 0.9405 -0.2273 0.2527
vn 0.7973 0.2273 0.5591
vn 0.7973 -0.2273 0.5591
vn 0.5580 0.2273 0.7981
vn 0.5580 -0.2273 0.7981
vn 0.2514 0.2273 0.9408
vn 0.2514 -0.2273 0.9408
vn -0.0855 0.2273 0.9700
vn -0.0855 -0.2273 0.9700
vn -0.4121 0.2273 0.8823
vn -0.4121 -0.2273 0.8823
vn -0.6890 0.2273 0.6881
vn -0.5431 0.7483 -0.3808
vn -0.4254 0.6700 -0.6084
vn -0.3801 0.7483 -0.5436
vn -0.6890 -0.2273 0.6881
vn -0.8828 0.2273 0.4109
vn -0.7376 0.6721 0.0640
vn -0.9634 0.2545 0.0836
vn -0.6608 -0.7483 0.0573
vn -0.6730 -0.6700 0.3132
vn -0.6013 -0.7483 0.2799
vn -0.9702 0.2273 0.0842
vn -0.6713 0.6721 0.3124
vn -0.8767 0.2545 0.4081
vn -0.5239 -0.6721 0.5232
vn -0.8767 -0.2545 0.4081
vn -0.6713 -0.6721 0.3124
vn -0.5239 0.6721 0.5232
vn -0.6843 0.2545 0.6833
vn -0.4093 -0.2545 0.8762
vn -0.3134 -0.6721 0.6708
vn -0.3134 0.6721 0.6708
vn -0.4093 0.2545 0.8762
vn -0.0849 -0.2545 0.9633
vn -0.0650 -0.6721 0.7375
vn -0.0650 0.6721 0.7375
vn -0.0849 0.2545 0.9633
vn 0.2496 -0.2545 0.9343
vn 0.1911 -0.6721 0.7153
vn 0.1911 0.6721 0.7153
vn 0.2496 0.2545 0.9343
vn 0.5541 -0.2545 0.7925
vn 0.4243 -0.6721 0.6068
vn 0.4243 0.6721 0.6068
vn 0.5541 0.2545 0.7925
vn 0.7918 -0.2545 0.5552
vn 0.6062 -0.6721 0.4251
vn 0.6062 0.6721 0.4251
vn 0.7918 0.2545 0.5552
vn 0.9339 -0.2545 0.2509
vn 0.7150 -0.6721 0.1921
vn 0.7150 0.6721 0.1921
vn 0.9339 0.2545 0.2509
vn 0.9634 -0.2545 -0.0836
vn 0.7376 -0.6721 -0.0640
vn 0.7376 0.6721 -0.0640
vn 0.9634 0.2545 -0.0836
vn 0.8767 -0.2545 -0.4081
vn 0.6713 -0.6721 -0.3124
vn 0.6713 0.6721 -0.3124
vn 0.8767 0.2545 -0.4081
vn 0.5239 -0.6721 -0.5232
vn 0.5239 0.6721 -0.5232
vn 0.6843 0.2545 -0.6833
vn 0.4093 -0.2545 -0.8762
vn 0.3134 -0.6721 -0.6708
vn 0.3134 0.6721 -0.6708
vn 0.4093 0.2545 -0.8762
vn 0.0849 -0.2545 -0.9633
vn 0.0650 -0.6721 -0.7375
vn 0.0849 0.2545 -0.9633
vn -0.2496 -0.2545 -0.9343
vn -0.1911 -0.6721 -0.7153
vn -0.1911 0.6721 -0.7153
vn -0.2496 0.2545 -0.9343
vn -0.5541 -0.2545 -0.7925
vn -0.4243 -0.6721 -0.6068
vn -0.5541 0.2545 -0.7925
vn -0.7918 -0.2545 -0.5552
vn -0.6062 -0.6721 -0.4251
vn -0.4243 0.6721 -0.6068
vn -0.9339 -0.2545 -0.2509
vn -0.7150 -0.6721 -0.1921
vn -0.7376 -0.6721 0.0640
vn -0.8828 -0.2273 0.4109
vn 0.6406 -0.7483 0.1721
vn 0.6406 0.7483 0.1721
vn 0.6608 0.7483 -0.0573
vn 0.5431 -0.7483 0.3808
vn 0.5431 0.7483 0.3808
vn 0.3801 -0.7483 0.5436
vn 0.3801 0.7483 0.5436
vn -0.6062 0.6721 -0.4251
vn 0.1712 -0.7483 0.6408
vn 0.1712 0.7483 0.6408
vn -0.0582 -0.7483 0.6607
vn -0.0582 0.7483 0.6607
vn -0.2807 -0.7483 0.6009
vn -0.2807 0.7483 0.6009
vn 0.0650 0.6721 -0.7375
vn -0.4693 -0.7483 0.4687
vn -0.4693 0.7483 0.4687
vn -0.6013 0.7483 0.2799
vn -0.6406 -0.7483 -0.1721
vn -0.6608 0.7483 0.0573
vn -0.5431 -0.7483 -0.3808
vn -0.6406 0.7483 -0.1721
vn -0.3801 -0.7483 -0.5436
vn -0.1712 -0.7483 -0.6408
vn -0.1712 0.7483 -0.6408
vn 0.0582 -0.7483 -0.6607
vn 0.2807 -0.7483 -0.6009
vn 0.2807 0.7483 -0.6009
vn 0.0582 0.7483 -0.6607
vn 0.4693 -0.7483 -0.4687
vn 0.4693 0.7483 -0.4687
vn 0.6013 -0.7483 -0.2799
vn 0.6013 0.7483 -0.2799
vn 0.6608 -0.7483 -0.0573
vn 0.6730 -0.6700 -0.3132
vn 0.4254 -0.6700 0.6084
vn -0.6078 -0.6700 -0.4262
vn -0.4254 -0.6700 -0.6084
vn 0.7169 -0.6700 0.1926
vn 0.5253 -0.6700 -0.5246
vn -0.0652 -0.6700 0.7395
vn -0.7395 -0.6700 0.0642
vn -0.1916 -0.6700 -0.7172
vn 0.6078 -0.6700 0.4262
vn -0.3142 -0.6700 0.6726
vn -0.7169 -0.6700 -0.1926
vn 0.0652 -0.6700 -0.7395
vn -0.5253 -0.6700 0.5246
vn 0.7395 -0.6700 -0.0642
vn 0.3142 -0.6700 -0.6726
vn 0.1916 -0.6700 0.7172
vn -0.6730 0.6700 0.3132
vn 0.1916 0.6700 0.7172
vn 0.7169 0.6700 0.1926
vn 0.5253 0.6700 -0.5246
vn -0.0652 0.6700 0.7395
vn -0.7395 0.6700 0.0642
vn -0.1916 0.6700 -0.7172
vn 0.6078 0.6700 0.4262
vn 0.6730 0.6700 -0.3132
vn -0.3142 0.6700 0.6726
vn -0.7169 0.6700 -0.1926
vn 0.0652 0.6700 -0.7395
vn 0.4254 0.6700 0.6084
vn 0.7395 0.6700 -0.0642
vn -0.5253 0.6700 0.5246
vn -0.6078 0.6700 -0.4262
vn 0.3142 0.6700 -0.6726
vn -0.9063 -0.0227 0.4219
vn -0.9634 -0.2545 0.0836
vn -0.9960 0.0228 0.0865
vn -0.9063 0.0227 0.4219
vn -0.7074 -0.0228 0.7064
vn -0.6843 -0.2545 0.6833
vn -0.7074 0.0228 0.7064
vn -0.4231 -0.0228 0.9058
vn -0.4231 0.0228 0.9058
vn -0.0878 -0.0228 0.9958
vn -0.0878 0.0228 0.9958
vn 0.2581 -0.0228 0.9658
vn 0.2581 0.0228 0.9658
vn 0.5729 -0.0228 0.8193
vn 0.5729 0.0228 0.8193
vn 0.8185 -0.0228 0.5740
vn 0.8185 0.0228 0.5740
vn 0.9655 -0.0228 0.2594
vn 0.9655 0.0228 0.2594
vn 0.9960 -0.0227 -0.0865
vn 0.9960 0.0228 -0.0865
vn 0.9063 -0.0228 -0.4219
vn 0.9063 0.0227 -0.4219
vn 0.7074 -0.0228 -0.7064
vn 0.6843 -0.2545 -0.6833
vn 0.7074 0.0228 -0.7064
vn 0.4231 -0.0228 -0.9058
vn 0.4231 0.0228 -0.9058
vn 0.0878 -0.0228 -0.9958
vn 0.0878 0.0228 -0.9958
vn -0.2581 -0.0228 -0.9658
vn -0.2581 0.0228 -0.9658
vn -0.5729 -0.0228 -0.8193
vn -0.5729 0.0228 -0.8193
vn -0.8185 -0.0228 -0.5740
vn -0.8185 0.0228 -0.5740
vn -0.9655 -0.0228 -0.2594
vn -0.9655 0.0227 -0.2594
vn -0.9960 -0.0228 0.0865
vn -0.9702 -0.2273 0.0842
vn -0.4366 -0.5331 -0.7246
vn 0.4507 -0.7941 0.4078
vn -0.4854 -0.6779 0.5520
vn 0.6383 0.5235 0.5643
vn 0.6746 0.6309 -0.3832
vn -0.2490 0.7844 -0.5680
vn -0.7743 -0.5301 -0.3454
vn -0.6406 0.7653 0.0623
vn -0.5867 0.7874 -0.1888
vn -0.6746 -0.6309 0.3832
vn -0.2978 0.6396 0.7086
vn -0.4869 0.6866 0.5398
vn 0.6060 -0.7302 -0.3153
vn 0.8283 0.5523 0.0943
vn 0.6407 -0.7653 -0.0623
vn -0.6383 -0.5235 -0.5643
vn -0.4507 0.7941 -0.4077
vn -0.6060 0.7302 0.3153
vn -0.7936 -0.5873 0.1587
vn 0.5867 -0.7874 0.1888
vn 0.7743 0.5301 0.3454
vn -0.1936 -0.5580 -0.8069
vn -0.0060 0.7596 -0.6503
vn 0.2490 -0.7844 0.5680
vn 0.4366 0.5332 0.7246
vn 0.2491 0.7226 -0.6448
vn 0.0615 -0.5950 -0.8014
vn 0.1936 0.5580 0.8069
vn 0.0060 -0.7596 0.6503
vn 0.4855 0.6779 -0.5520
vn 0.2978 -0.6396 -0.7086
vn -0.2491 -0.7226 0.6448
vn -0.0615 0.5950 0.8014
vn 0.4870 -0.6866 -0.5398
vn -0.8283 -0.5523 -0.0943
vn 0.7936 0.5873 -0.1587
usemtl Barrel_7
s off
f 286/1/1 219/2/1 217/3/1
f 285/4/2 221/5/2 219/2/2
f 221/5/3 288/6/3 223/7/3
f 223/7/4 289/8/4 225/9/4
f 225/9/5 290/10/5 227/11/5
f 290/10/6 229/12/6 227/11/6
f 218/13/7 293/14/7 220/15/7
f 291/16/8 231/17/8 229/12/8
f 231/17/9 286/1/9 217/3/9
f 234/18/10 235/19/10 233/20/10
f 235/19/11 238/21/11 237/22/11
f 238/21/3 239/23/3 237/22/3
f 239/23/4 242/24/4 241/25/4
f 242/24/5 243/26/5 241/25/5
f 243/26/12 246/27/12 245/28/12
f 242/24/13 240/29/13 238/21/13
f 245/28/14 248/30/14 247/31/14
f 248/30/9 233/20/9 247/31/9
f 218/13/13 285/4/13 286/1/13
f 222/32/13 285/4/13 220/15/13
f 222/32/15 288/6/15 287/33/15
f 224/34/15 289/8/15 288/6/15
f 226/35/15 290/10/15 289/8/15
f 228/36/13 291/16/13 290/10/13
f 232/37/13 291/16/13 230/38/13
f 218/13/15 292/39/15 232/37/15
f 296/40/13 295/41/13 299/42/13
f 232/37/16 294/43/16 218/13/16
f 228/36/17 299/44/17 230/38/17
f 224/34/9 297/45/9 226/35/9
f 222/32/6 293/14/6 295/46/6
f 232/37/18 299/44/18 300/47/18
f 226/35/10 298/48/10 228/36/10
f 222/32/19 296/49/19 224/34/19
f 286/1/20 285/4/20 219/2/20
f 285/4/21 287/33/21 221/5/21
f 221/5/3 287/33/3 288/6/3
f 223/7/16 288/6/16 289/8/16
f 225/9/22 289/8/22 290/10/22
f 290/10/6 291/16/6 229/12/6
f 218/13/23 294/43/23 293/14/23
f 291/16/8 292/39/8 231/17/8
f 231/17/24 292/39/24 286/1/24
f 234/18/10 236/50/10 235/19/10
f 235/19/25 236/50/25 238/21/25
f 238/21/18 240/29/18 239/23/18
f 239/23/16 240/29/16 242/24/16
f 242/24/26 244/51/26 243/26/26
f 243/26/27 244/51/27 246/27/27
f 238/21/28 236/50/28 234/18/28
f 234/18/15 248/30/15 238/21/15
f 248/30/13 246/27/13 238/21/13
f 246/27/13 244/51/13 238/21/13
f 244/51/13 242/24/13 238/21/13
f 245/28/14 246/27/14 248/30/14
f 248/30/24 234/18/24 233/20/24
f 218/13/15 220/15/15 285/4/15
f 222/32/13 287/33/13 285/4/13
f 222/32/13 224/34/13 288/6/13
f 224/34/15 226/35/15 289/8/15
f 226/35/13 228/36/13 290/10/13
f 228/36/15 230/38/15 291/16/15
f 232/37/15 292/39/15 291/16/15
f 218/13/13 286/1/13 292/39/13
f 295/41/13 293/52/13 299/42/13
f 293/52/13 294/53/13 299/42/13
f 294/53/13 300/54/13 299/42/13
f 299/42/13 298/55/13 297/56/13
f 297/56/13 296/40/13 299/42/13
f 232/37/29 300/47/29 294/43/29
f 228/36/30 298/48/30 299/44/30
f 224/34/31 296/49/31 297/45/31
f 222/32/32 220/15/32 293/14/32
f 232/37/3 230/38/3 299/44/3
f 226/35/33 297/45/33 298/48/33
f 222/32/19 295/46/19 296/49/19
s 1
f 39/57/34 118/58/35 114/59/36
f 113/60/37 120/61/38 116/62/39
f 117/63/40 124/64/41 120/61/38
f 121/65/42 128/66/43 124/64/41
f 125/67/44 132/68/45 128/66/43
f 129/69/46 136/70/47 132/68/45
f 133/71/48 140/72/49 136/70/47
f 137/73/50 144/74/51 140/75/49
f 141/76/52 148/77/53 144/74/51
f 145/78/54 152/79/55 148/77/53
f 149/80/56 156/81/57 152/79/55
f 153/82/58 160/83/59 156/81/57
f 157/84/60 164/85/61 160/83/59
f 161/86/62 168/87/63 164/85/61
f 165/88/64 172/89/65 168/87/63
f 169/90/66 176/91/67 172/89/65
f 24/92/68 103/93/69 26/94/70
f 173/95/71 180/96/72 176/91/67
f 40/97/73 114/59/36 111/98/74
f 19/99/75 81/100/76 17/101/77
f 109/102/78 113/60/37 116/62/39
f 72/103/79 111/98/74 178/104/80
f 69/105/81 179/106/82 71/107/83
f 70/108/84 178/104/80 174/109/85
f 171/110/86 69/105/81 67/111/87
f 68/112/88 174/109/85 170/113/89
f 167/114/90 67/111/87 65/115/91
f 66/116/92 170/113/89 166/117/93
f 163/118/94 65/115/91 63/119/95
f 64/120/96 166/117/93 162/121/97
f 159/122/98 63/119/95 61/123/99
f 62/124/100 162/121/97 158/125/101
f 155/126/102 61/123/99 59/127/103
f 60/128/104 158/125/101 154/129/105
f 151/130/106 59/127/103 57/131/107
f 58/132/108 154/129/105 150/133/109
f 147/134/110 57/131/107 55/135/111
f 56/136/112 150/133/109 146/137/113
f 143/138/114 55/135/111 53/139/115
f 54/140/116 146/137/113 142/141/117
f 51/142/118 143/138/114 53/139/115
f 52/143/119 142/141/117 138/144/120
f 135/145/121 51/146/118 49/147/122
f 50/148/123 138/149/120 134/150/124
f 131/151/125 49/147/122 47/152/126
f 130/153/127 50/148/123 134/150/124
f 127/154/128 47/152/126 45/155/129
f 46/156/130 130/153/127 126/157/131
f 123/158/132 45/155/129 43/159/133
f 122/160/134 46/156/130 126/157/131
f 119/161/135 43/159/133 41/162/136
f 118/58/35 44/163/137 122/160/134
f 115/164/138 41/162/136 38/165/139
f 179/106/82 37/166/140 71/107/83
f 177/167/141 109/102/78 180/96/72
f 3/168/142 37/166/140 38/165/139
f 4/169/143 40/97/73 2/170/144
f 3/168/142 41/162/136 5/171/145
f 6/172/146 39/57/34 4/169/143
f 7/173/147 41/162/136 43/159/133
f 8/174/148 42/175/149 6/172/146
f 7/173/147 45/155/129 9/176/150
f 10/177/151 44/163/137 8/174/148
f 9/176/150 47/152/126 11/178/152
f 12/179/153 46/156/130 10/177/151
f 13/180/154 47/152/126 49/147/122
f 14/181/155 48/182/156 12/179/153
f 13/180/154 51/146/118 15/183/157
f 14/181/155 52/184/119 50/148/123
f 15/185/157 53/139/115 17/101/77
f 16/186/158 54/140/116 52/143/119
f 17/101/77 55/135/111 19/99/75
f 18/187/159 56/136/112 54/140/116
f 19/99/75 57/131/107 21/188/160
f 20/189/161 58/132/108 56/136/112
f 21/188/160 59/127/103 23/190/162
f 24/92/68 58/132/108 22/191/163
f 23/190/162 61/123/99 25/192/164
f 24/92/68 62/124/100 60/128/104
f 25/192/164 63/119/95 27/193/165
f 28/194/166 62/124/100 26/94/70
f 27/193/165 65/115/91 29/195/167
f 28/194/166 66/116/92 64/120/96
f 31/196/168 65/115/91 67/111/87
f 32/197/169 66/116/92 30/198/170
f 31/196/168 69/105/81 33/199/171
f 34/200/172 68/112/88 32/197/169
f 33/199/171 71/107/83 35/201/173
f 36/202/174 70/108/84 34/200/172
f 1/203/175 71/107/83 37/166/140
f 2/170/144 72/103/79 36/202/174
f 90/204/176 76/205/177 84/206/178
f 27/193/165 85/207/179 25/192/164
f 5/171/145 74/208/180 3/168/142
f 35/201/173 89/209/181 33/199/171
f 13/180/154 78/210/182 11/178/152
f 21/188/160 82/211/183 19/99/75
f 29/195/167 86/212/184 27/193/165
f 7/173/147 75/213/185 5/171/145
f 1/203/175 90/214/176 35/201/173
f 15/183/157 79/215/186 13/180/154
f 23/190/162 83/216/187 21/188/160
f 31/196/168 87/217/188 29/195/167
f 9/176/150 76/218/177 7/173/147
f 17/101/77 80/219/189 15/185/157
f 25/192/164 84/220/178 23/190/162
f 3/168/142 73/221/190 1/203/175
f 33/199/171 88/222/191 31/196/168
f 11/178/152 77/223/192 9/176/150
f 103/224/69 99/225/193 95/226/194
f 2/170/144 91/227/195 4/169/143
f 32/197/169 107/228/196 34/200/172
f 10/177/151 96/229/197 12/179/153
f 18/187/159 100/230/198 20/189/161
f 26/94/70 104/231/199 28/194/166
f 4/169/143 93/232/200 6/172/146
f 34/200/172 108/233/201 36/202/174
f 12/179/153 97/234/202 14/181/155
f 20/189/161 101/235/203 22/191/163
f 28/194/166 105/236/204 30/198/170
f 6/172/146 94/237/205 8/174/148
f 36/202/174 92/238/206 2/170/144
f 14/181/155 98/239/207 16/240/158
f 22/191/163 102/241/208 24/92/68
f 30/198/170 106/242/209 32/197/169
f 8/174/148 95/243/194 10/177/151
f 16/186/158 99/244/193 18/187/159
f 199/245/210 110/246/211 179/106/82
f 182/247/212 177/167/141 181/248/213
f 201/249/214 179/106/82 175/250/215
f 183/251/216 177/167/141 173/95/71
f 202/252/217 175/250/215 171/110/86
f 184/253/218 173/95/71 169/90/66
f 203/254/219 171/110/86 167/114/90
f 185/255/220 169/90/66 165/88/64
f 203/254/219 163/118/94 204/256/221
f 185/255/220 161/86/62 186/257/222
f 204/256/221 159/122/98 205/258/223
f 186/257/222 157/84/60 187/259/224
f 206/260/225 159/122/98 155/126/102
f 188/261/226 157/84/60 153/82/58
f 207/262/227 155/126/102 151/130/106
f 189/263/228 153/82/58 149/80/56
f 207/262/227 147/134/110 208/264/229
f 189/263/228 145/78/54 190/265/230
f 208/264/229 143/138/114 209/266/231
f 190/265/230 141/76/52 191/267/232
f 210/268/233 143/138/114 139/269/234
f 192/270/235 141/76/52 137/73/50
f 211/271/236 139/272/234 135/145/121
f 193/273/237 137/274/50 133/71/48
f 211/271/236 131/151/125 212/275/238
f 193/273/237 129/69/46 194/276/239
f 212/275/238 127/154/128 213/277/240
f 194/276/239 125/67/44 195/278/241
f 213/277/240 123/158/132 214/279/242
f 195/278/241 121/65/42 196/280/243
f 214/279/242 119/161/135 215/281/244
f 196/280/243 117/63/40 197/282/245
f 215/281/244 115/164/138 216/283/246
f 197/282/245 113/60/37 198/284/247
f 216/283/246 110/246/211 200/285/248
f 198/284/247 112/286/249 182/247/212
f 37/166/140 115/164/138 38/165/139
f 114/59/36 182/247/212 111/98/74
f 114/59/36 197/282/245 198/284/247
f 118/58/35 196/280/243 197/282/245
f 122/160/134 195/278/241 196/280/243
f 130/153/127 195/278/241 126/157/131
f 130/153/127 193/273/237 194/276/239
f 138/149/120 193/273/237 134/150/124
f 142/141/117 192/270/235 138/144/120
f 146/137/113 191/267/232 142/141/117
f 146/137/113 189/263/228 190/265/230
f 154/129/105 189/263/228 150/133/109
f 158/125/101 188/261/226 154/129/105
f 158/125/101 186/257/222 187/259/224
f 166/117/93 186/257/222 162/121/97
f 170/113/89 185/255/220 166/117/93
f 174/109/85 184/253/218 170/113/89
f 178/104/80 183/251/216 174/109/85
f 111/98/74 181/248/213 178/104/80
f 116/62/39 200/285/248 109/102/78
f 116/62/39 215/281/244 216/283/246
f 120/61/38 214/279/242 215/281/244
f 124/64/41 213/277/240 214/279/242
f 132/68/45 213/277/240 128/66/43
f 136/70/47 212/275/238 132/68/45
f 140/72/49 211/271/236 136/70/47
f 144/74/51 210/268/233 140/75/49
f 148/77/53 209/266/231 144/74/51
f 148/77/53 207/262/227 208/264/229
f 156/81/57 207/262/227 152/79/55
f 160/83/59 206/260/225 156/81/57
f 160/83/59 204/256/221 205/258/223
f 168/87/63 204/256/221 164/85/61
f 172/89/65 203/254/219 168/87/63
f 176/91/67 202/252/217 172/89/65
f 180/96/72 201/249/214 176/91/67
f 180/96/72 200/285/248 199/245/210
f 253/287/250 261/288/251 265/289/252
f 279/290/253 275/291/254 271/292/255
f 251/293/256 267/294/257 269/295/258
f 266/296/259 283/297/260 284/298/261
f 258/299/262 277/300/263 259/301/264
f 252/302/265 269/295/258 270/303/266
f 266/296/259 268/304/267 250/305/268
f 260/306/269 277/300/263 278/307/270
f 253/308/250 270/303/266 271/309/255
f 260/306/269 279/310/253 261/311/251
f 254/312/271 271/309/255 272/313/272
f 262/314/273 279/310/253 280/315/274
f 254/312/271 273/316/275 255/317/276
f 262/314/273 281/318/277 263/319/278
f 255/317/276 274/320/279 256/321/280
f 264/322/281 281/318/277 282/323/282
f 256/321/280 275/324/254 257/325/283
f 250/305/268 267/294/257 249/326/284
f 264/322/281 283/297/260 265/327/252
f 257/325/283 276/328/285 258/299/262
f 39/57/34 42/175/149 118/58/35
f 113/60/37 117/63/40 120/61/38
f 117/63/40 121/65/42 124/64/41
f 121/65/42 125/67/44 128/66/43
f 125/67/44 129/69/46 132/68/45
f 129/69/46 133/71/48 136/70/47
f 133/71/48 137/274/50 140/72/49
f 137/73/50 141/76/52 144/74/51
f 141/76/52 145/78/54 148/77/53
f 145/78/54 149/80/56 152/79/55
f 149/80/56 153/82/58 156/81/57
f 153/82/58 157/84/60 160/83/59
f 157/84/60 161/86/62 164/85/61
f 161/86/62 165/88/64 168/87/63
f 165/88/64 169/90/66 172/89/65
f 169/90/66 173/95/71 176/91/67
f 24/92/68 102/241/208 103/93/69
f 173/95/71 177/167/141 180/96/72
f 40/97/73 39/57/34 114/59/36
f 19/99/75 82/211/183 81/100/76
f 109/102/78 112/286/249 113/60/37
f 72/103/79 40/97/73 111/98/74
f 69/105/81 175/250/215 179/106/82
f 70/108/84 72/103/79 178/104/80
f 171/110/86 175/250/215 69/105/81
f 68/112/88 70/108/84 174/109/85
f 167/114/90 171/110/86 67/111/87
f 66/116/92 68/112/88 170/113/89
f 163/118/94 167/114/90 65/115/91
f 64/120/96 66/116/92 166/117/93
f 159/122/98 163/118/94 63/119/95
f 62/124/100 64/120/96 162/121/97
f 155/126/102 159/122/98 61/123/99
f 60/128/104 62/124/100 158/125/101
f 151/130/106 155/126/102 59/127/103
f 58/132/108 60/128/104 154/129/105
f 147/134/110 151/130/106 57/131/107
f 56/136/112 58/132/108 150/133/109
f 143/138/114 147/134/110 55/135/111
f 54/140/116 56/136/112 146/137/113
f 51/142/118 139/269/234 143/138/114
f 52/143/119 54/140/116 142/141/117
f 135/145/121 139/272/234 51/146/118
f 50/148/123 52/184/119 138/149/120
f 131/151/125 135/145/121 49/147/122
f 130/153/127 48/182/156 50/148/123
f 127/154/128 131/151/125 47/152/126
f 46/156/130 48/182/156 130/153/127
f 123/158/132 127/154/128 45/155/129
f 122/160/134 44/163/137 46/156/130
f 119/161/135 123/158/132 43/159/133
f 118/58/35 42/175/149 44/163/137
f 115/164/138 119/161/135 41/162/136
f 179/106/82 110/246/211 37/166/140
f 177/167/141 112/286/249 109/102/78
f 3/168/142 1/203/175 37/166/140
f 4/169/143 39/57/34 40/97/73
f 3/168/142 38/165/139 41/162/136
f 6/172/146 42/175/149 39/57/34
f 7/173/147 5/171/145 41/162/136
f 8/174/148 44/163/137 42/175/149
f 7/173/147 43/159/133 45/155/129
f 10/177/151 46/156/130 44/163/137
f 9/176/150 45/155/129 47/152/126
f 12/179/153 48/182/156 46/156/130
f 13/180/154 11/178/152 47/152/126
f 14/181/155 50/148/123 48/182/156
f 13/180/154 49/147/122 51/146/118
f 14/181/155 16/240/158 52/184/119
f 15/185/157 51/142/118 53/139/115
f 16/186/158 18/187/159 54/140/116
f 17/101/77 53/139/115 55/135/111
f 18/187/159 20/189/161 56/136/112
f 19/99/75 55/135/111 57/131/107
f 20/189/161 22/191/163 58/132/108
f 21/188/160 57/131/107 59/127/103
f 24/92/68 60/128/104 58/132/108
f 23/190/162 59/127/103 61/123/99
f 24/92/68 26/94/70 62/124/100
f 25/192/164 61/123/99 63/119/95
f 28/194/166 64/120/96 62/124/100
f 27/193/165 63/119/95 65/115/91
f 28/194/166 30/198/170 66/116/92
f 31/196/168 29/195/167 65/115/91
f 32/197/169 68/112/88 66/116/92
f 31/196/168 67/111/87 69/105/81
f 34/200/172 70/108/84 68/112/88
f 33/199/171 69/105/81 71/107/83
f 36/202/174 72/103/79 70/108/84
f 1/203/175 35/201/173 71/107/83
f 2/170/144 40/97/73 72/103/79
f 90/204/176 73/329/190 74/330/180
f 74/330/180 75/331/185 76/205/177
f 76/205/177 77/332/192 78/333/182
f 78/333/182 79/334/186 80/335/189
f 80/335/189 81/336/76 82/337/183
f 82/337/183 83/338/187 84/206/178
f 84/206/178 85/339/179 86/340/184
f 86/340/184 87/341/188 84/206/178
f 87/341/188 88/342/191 84/206/178
f 88/342/191 89/343/181 90/204/176
f 90/204/176 74/330/180 76/205/177
f 76/205/177 78/333/182 80/335/189
f 80/335/189 82/337/183 76/205/177
f 82/337/183 84/206/178 76/205/177
f 88/342/191 90/204/176 84/206/178
f 27/193/165 86/212/184 85/207/179
f 5/171/145 75/213/185 74/208/180
f 35/201/173 90/214/176 89/209/181
f 13/180/154 79/215/186 78/210/182
f 21/188/160 83/216/187 82/211/183
f 29/195/167 87/217/188 86/212/184
f 7/173/147 76/218/177 75/213/185
f 1/203/175 73/221/190 90/214/176
f 15/183/157 80/344/189 79/215/186
f 23/190/162 84/220/178 83/216/187
f 31/196/168 88/222/191 87/217/188
f 9/176/150 77/223/192 76/218/177
f 17/101/77 81/100/76 80/219/189
f 25/192/164 85/207/179 84/220/178
f 3/168/142 74/208/180 73/221/190
f 33/199/171 89/209/181 88/222/191
f 11/178/152 78/210/182 77/223/192
f 93/345/200 91/346/195 92/347/206
f 92/347/206 108/348/201 107/349/196
f 107/349/196 106/350/209 103/224/69
f 106/350/209 105/351/204 103/224/69
f 105/351/204 104/352/199 103/224/69
f 103/224/69 102/353/208 99/225/193
f 102/353/208 101/354/203 99/225/193
f 101/354/203 100/355/198 99/225/193
f 99/225/193 98/356/207 97/357/202
f 97/357/202 96/358/197 99/225/193
f 96/358/197 95/226/194 99/225/193
f 95/226/194 94/359/205 93/345/200
f 93/345/200 92/347/206 107/349/196
f 95/226/194 93/345/200 107/349/196
f 107/349/196 103/224/69 95/226/194
f 2/170/144 92/238/206 91/227/195
f 32/197/169 106/242/209 107/228/196
f 10/177/151 95/243/194 96/229/197
f 18/187/159 99/244/193 100/230/198
f 26/94/70 103/93/69 104/231/199
f 4/169/143 91/227/195 93/232/200
f 34/200/172 107/228/196 108/233/201
f 12/179/153 96/229/197 97/234/202
f 20/189/161 100/230/198 101/235/203
f 28/194/166 104/231/199 105/236/204
f 6/172/146 93/232/200 94/237/205
f 36/202/174 108/233/201 92/238/206
f 14/181/155 97/234/202 98/239/207
f 22/191/163 101/235/203 102/241/208
f 30/198/170 105/236/204 106/242/209
f 8/174/148 94/237/205 95/243/194
f 16/186/158 98/360/207 99/244/193
f 199/245/210 200/285/248 110/246/211
f 182/247/212 112/286/249 177/167/141
f 201/249/214 199/245/210 179/106/82
f 183/251/216 181/248/213 177/167/141
f 202/252/217 201/249/214 175/250/215
f 184/253/218 183/251/216 173/95/71
f 203/254/219 202/252/217 171/110/86
f 185/255/220 184/253/218 169/90/66
f 203/254/219 167/114/90 163/118/94
f 185/255/220 165/88/64 161/86/62
f 204/256/221 163/118/94 159/122/98
f 186/257/222 161/86/62 157/84/60
f 206/260/225 205/258/223 159/122/98
f 188/261/226 187/259/224 157/84/60
f 207/262/227 206/260/225 155/126/102
f 189/263/228 188/261/226 153/82/58
f 207/262/227 151/130/106 147/134/110
f 189/263/228 149/80/56 145/78/54
f 208/264/229 147/134/110 143/138/114
f 190/265/230 145/78/54 141/76/52
f 210/268/233 209/266/231 143/138/114
f 192/270/235 191/267/232 141/76/52
f 211/271/236 210/361/233 139/272/234
f 193/273/237 192/362/235 137/274/50
f 211/271/236 135/145/121 131/151/125
f 193/273/237 133/71/48 129/69/46
f 212/275/238 131/151/125 127/154/128
f 194/276/239 129/69/46 125/67/44
f 213/277/240 127/154/128 123/158/132
f 195/278/241 125/67/44 121/65/42
f 214/279/242 123/158/132 119/161/135
f 196/280/243 121/65/42 117/63/40
f 215/281/244 119/161/135 115/164/138
f 197/282/245 117/63/40 113/60/37
f 216/283/246 115/164/138 110/246/211
f 198/284/247 113/60/37 112/286/249
f 37/166/140 110/246/211 115/164/138
f 114/59/36 198/284/247 182/247/212
f 114/59/36 118/58/35 197/282/245
f 118/58/35 122/160/134 196/280/243
f 122/160/134 126/157/131 195/278/241
f 130/153/127 194/276/239 195/278/241
f 130/153/127 134/150/124 193/273/237
f 138/149/120 192/362/235 193/273/237
f 142/141/117 191/267/232 192/270/235
f 146/137/113 190/265/230 191/267/232
f 146/137/113 150/133/109 189/263/228
f 154/129/105 188/261/226 189/263/228
f 158/125/101 187/259/224 188/261/226
f 158/125/101 162/121/97 186/257/222
f 166/117/93 185/255/220 186/257/222
f 170/113/89 184/253/218 185/255/220
f 174/109/85 183/251/216 184/253/218
f 178/104/80 181/248/213 183/251/216
f 111/98/74 182/247/212 181/248/213
f 116/62/39 216/283/246 200/285/248
f 116/62/39 120/61/38 215/281/244
f 120/61/38 124/64/41 214/279/242
f 124/64/41 128/66/43 213/277/240
f 132/68/45 212/275/238 213/277/240
f 136/70/47 211/271/236 212/275/238
f 140/72/49 210/361/233 211/271/236
f 144/74/51 209/266/231 210/268/233
f 148/77/53 208/264/229 209/266/231
f 148/77/53 152/79/55 207/262/227
f 156/81/57 206/260/225 207/262/227
f 160/83/59 205/258/223 206/260/225
f 160/83/59 164/85/61 204/256/221
f 168/87/63 203/254/219 204/256/221
f 172/89/65 202/252/217 203/254/219
f 176/91/67 201/249/214 202/252/217
f 180/96/72 199/245/210 201/249/214
f 180/96/72 109/102/78 200/285/248
f 250/363/268 249/364/284 253/287/250
f 249/364/284 251/365/256 253/287/250
f 251/365/256 252/366/265 253/287/250
f 253/287/250 254/367/271 255/368/276
f 255/368/276 256/369/280 257/370/283
f 257/370/283 258/371/262 259/372/264
f 259/372/264 260/373/269 261/288/251
f 261/288/251 262/374/273 263/375/278
f 263/375/278 264/376/281 265/289/252
f 265/289/252 266/377/259 250/363/268
f 253/287/250 255/368/276 261/288/251
f 255/368/276 257/370/283 261/288/251
f 257/370/283 259/372/264 261/288/251
f 261/288/251 263/375/278 265/289/252
f 265/289/252 250/363/268 253/287/250
f 269/378/258 267/379/257 283/380/260
f 267/379/257 268/381/267 283/380/260
f 268/381/267 284/382/261 283/380/260
f 283/380/260 282/383/282 281/384/277
f 281/384/277 280/385/274 279/290/253
f 279/290/253 278/386/270 275/291/254
f 278/386/270 277/387/263 275/291/254
f 277/387/263 276/388/285 275/291/254
f 275/291/254 274/389/279 273/390/275
f 273/390/275 272/391/272 271/292/255
f 271/292/255 270/392/266 283/380/260
f 270/392/266 269/378/258 283/380/260
f 283/380/260 281/384/277 279/290/253
f 275/291/254 273/390/275 271/292/255
f 283/380/260 279/290/253 271/292/255
f 251/293/256 249/326/284 267/294/257
f 266/296/259 265/327/252 283/297/260
f 258/299/262 276/328/285 277/300/263
f 252/302/265 251/293/256 269/295/258
f 266/296/259 284/298/261 268/304/267
f 260/306/269 259/301/264 277/300/263
f 253/308/250 252/302/265 270/303/266
f 260/306/269 278/307/270 279/310/253
f 254/312/271 253/308/250 271/309/255
f 262/314/273 261/311/251 279/310/253
f 254/312/271 272/313/272 273/316/275
f 262/314/273 280/315/274 281/318/277
f 255/317/276 273/316/275 274/320/279
f 264/322/281 263/319/278 281/318/277
f 256/321/280 274/320/279 275/324/254
f 250/305/268 268/304/267 267/294/257
f 264/322/281 282/323/282 283/297/260
f 257/325/283 275/324/254 276/328/285
