# -----------------
#LOW POLY TREE
#LGLabian
o trunks
mtllib LPTree1.mtl
v 6.97709 0.0 -4.07666
v 0.876735 0.0 -12.4731
v -8.99385 0.0 -9.26593
v -8.99385 0.0 1.11262
v 0.876737 0.0 4.31977
v 6.97709 53.9898 -4.07666
v 0.876735 53.9898 -12.4731
v -8.99385 53.9898 -9.26593
v -8.99385 53.9898 1.11262
v 0.876737 53.9898 4.31977
v -0.032653 87.3258 -18.1652
v 4.03425 87.3258 -12.5676
v -6.61304 87.3258 -16.0271
v -6.61304 87.3258 -9.10804
v -0.032651 87.3258 -6.96994
v -0.372749 116.471 -13.8411
v 2.93368 116.471 -9.2902
v -5.72266 116.471 -12.1028
v -5.72266 116.471 -6.47758
v -0.372748 116.471 -4.73929
v 11.9359 158.991 -17.0786
v 13.3135 158.991 -15.1824
v 9.70674 158.991 -16.3543
v 9.70674 158.991 -14.0104
v 11.9359 158.991 -13.2862
v 11.6423 195.27 -13.7253
v 12.3636 195.27 -12.7325
v 10.4752 195.27 -13.3461
v 10.4752 195.27 -12.1189
v 11.6423 195.27 -11.7397
v -6.73516 29.0442 0.250705
v -0.91051 32.6909 -1.14595
v 0.986535 31.298 -7.75175
v -3.66568 26.7904 -10.4377
v -8.43795 25.3975 -5.49192
v -34.1467 67.5808 -17.2886
v -29.7708 70.3205 -18.3379
v -28.3456 69.274 -23.3006
v -31.8407 65.8876 -25.3185
v -35.426 64.8411 -21.6029
v -43.7433 99.9701 -27.19
v -45.9708 98.5755 -26.6558
v -43.0178 99.4374 -29.7162
v -44.7969 97.7136 -30.7434
v -46.622 97.1809 -28.852
v -62.6222 119.573 -38.4496
v -63.8649 118.795 -38.1517
v -62.2175 119.276 -39.8589
v -63.21 118.314 -40.432
v -64.2282 118.017 -39.3768
v 4.11379 74.5779 -7.97069
v -0.008075 78.2246 -12.3167
v -6.67739 76.8316 -10.6567
v -6.67739 72.3241 -5.28474
v -0.008074 70.9312 -3.62473
v 2.63006 113.114 24.5381
v -0.466572 115.854 21.2731
v -5.47702 114.808 22.5202
v -5.47702 111.421 26.5559
v -0.466572 110.375 27.803
v -1.14647 145.504 37.7996
v 0.429846 144.109 39.4616
v -3.69701 144.971 38.4344
v -3.69701 143.247 40.4888
v -1.14647 142.715 41.1236
v -1.45816 165.107 59.7791
v -0.57879 164.329 60.7063
v -2.88101 164.81 60.1333
v -2.88101 163.848 61.2793
v -1.45816 163.551 61.6335

vt 0.35634 0.000499547 0.0821345
vt 0.274157 0.000499547 0.160728
vt 0.305548 0.000499547 0.287895
vt 0.407131 0.000499547 0.287895
vt 0.438523 0.000499547 0.160728
vt 0.35634 0.276711 0.0821345
vt 0.274157 0.276711 0.160728
vt 0.305548 0.276711 0.287895
vt 0.407132 0.276711 0.287895
vt 0.438523 0.276711 0.160728
vt 0.218443 0.447258 0.172444
vt 0.273232 0.447258 0.120048
vt 0.239371 0.447258 0.257222
vt 0.307093 0.447258 0.257222
vt 0.328021 0.447258 0.172444
vt 0.260767 0.596364 0.176826
vt 0.30531 0.596364 0.134227
vt 0.277781 0.596364 0.245751
vt 0.33284 0.596364 0.245751
vt 0.349854 0.596364 0.176825
vt 0.229079 0.813898 0.0182487
vt 0.247639 0.813898 0.000499487
vt 0.236168 0.813898 0.0469674
vt 0.259109 0.813898 0.0469674
vt 0.266199 0.813898 0.0182487
vt 0.261901 0.999501 0.0220305
vt 0.271618 0.999501 0.0127378
vt 0.265612 0.999501 0.0370665
vt 0.277623 0.999501 0.0370665
vt 0.281335 0.999501 0.0220305
vt 0.398695 0.14909 0.258795
vt 0.385025 0.167746 0.183754
vt 0.320368 0.16062 0.159313
vt 0.294079 0.137559 0.21925
vt 0.342487 0.130433 0.280733
vt 0.227023 0.346243 0.611949
vt 0.216753 0.360259 0.555573
vt 0.168178 0.354905 0.537211
vt 0.148428 0.337581 0.58224
vt 0.184796 0.332227 0.62843
vt 0.13011 0.511947 0.735585
vt 0.135338 0.504812 0.764283
vt 0.105384 0.509221 0.726239
vt 0.0953298 0.500402 0.74916
vt 0.113843 0.497677 0.772673
vt 0.0199022 0.612236 0.978811
vt 0.0228187 0.608256 0.99482
vt 0.00610825 0.610716 0.973597
vt 0.000499517 0.605796 0.986384
vt 0.0108271 0.604276 0.999501
vt 0.318225 0.38204 0.119024
vt 0.275688 0.400696 0.172127
vt 0.291936 0.39357 0.258051
vt 0.344515 0.37051 0.258051
vt 0.360763 0.363383 0.172127
vt 0.636416 0.579193 0.138139
vt 0.604459 0.593209 0.178034
vt 0.616666 0.587856 0.242586
vt 0.656167 0.570531 0.242586
vt 0.668373 0.565177 0.178034
vt 0.766218 0.744897 0.186794
vt 0.782486 0.737762 0.166485
vt 0.772432 0.742172 0.219653
vt 0.79254 0.733353 0.219653
vt 0.798753 0.730627 0.186794
vt 0.98135 0.845186 0.190809
vt 0.990425 0.841206 0.17948
vt 0.984817 0.843666 0.20914
vt 0.996034 0.838746 0.20914
vt 0.999501 0.837226 0.190809

vn 0.809017 0.0 -0.587785
vn 0.809017 0.0 -0.587785
vn -0.309017 0.0 -0.951057
vn -0.309017 0.0 -0.951057
vn -1 0.0 0.0
vn -1 0.0 0.0
vn -0.309017 0.0 0.951057
vn -0.309017 0.0 0.951057
vn 0.809017 0.0 0.587785
vn 0.809017 0.0 0.587785
vn 0.806549 -0.078055 -0.585992
vn 0.806549 -0.078055 -0.585992
vn -0.304605 -0.168383 -0.937477
vn -0.304605 -0.168383 -0.937477
vn -0.997459 0.071237 0.0
vn -0.997459 0.071237 0.0
vn -0.294853 0.299282 0.907465
vn -0.294853 0.299282 0.907465
vn 0.789934 0.215915 0.573921
vn 0.789934 0.215915 0.573921
vn 0.805265 0.096198 -0.585059
vn 0.805265 0.096198 -0.585059
vn -0.306137 0.136215 -0.942192
vn -0.306137 0.136215 -0.942192
vn -0.999534 0.030536 0.0
vn -0.999534 0.030536 0.0
vn -0.308119 -0.076174 0.948293
vn -0.308119 -0.076174 0.948293
vn 0.808506 -0.035524 0.587414
vn 0.808506 -0.035524 0.587414
vn 0.779267 -0.268687 -0.566171
vn 0.779267 -0.268687 -0.566171
vn -0.308972 0.017038 -0.950919
vn -0.308972 0.017038 -0.950918
vn -0.940024 0.341108 0.0
vn -0.940024 0.341108 0.0
vn -0.297524 0.270185 0.915685
vn -0.297524 0.270185 0.915685
vn 0.803624 -0.115269 0.583867
vn 0.803624 -0.115269 0.583867
vn 0.807522 0.060763 -0.586699
vn 0.807522 0.060763 -0.586699
vn -0.307895 0.085098 -0.947607
vn -0.307896 0.085097 -0.947607
vn -0.999776 0.021178 0.0
vn -0.999776 0.021178 0.0
vn -0.308731 -0.043001 0.950177
vn -0.308731 -0.043001 0.950177
vn 0.808878 -0.018506 0.587685
vn 0.808878 -0.018506 0.587685
vn -0.028667 0.397113 0.917322
vn -0.028667 0.397113 0.917322
vn 0.770543 0.631259 0.088175
vn 0.770543 0.631259 0.088175
vn 0.486608 0.018233 -0.87343
vn 0.486608 0.018233 -0.87343
vn -0.488189 -0.594865 -0.638597
vn -0.488189 -0.594865 -0.638597
vn -0.806648 -0.360675 0.468222
vn -0.806649 -0.360675 0.468222
vn 0.038872 0.302637 0.952313
vn 0.038873 0.302637 0.952313
vn 0.875109 0.458559 0.15462
vn 0.875109 0.458559 0.15462
vn 0.469607 0.040845 -0.88193
vn 0.469607 0.040846 -0.88193
vn -0.614708 -0.369066 -0.697083
vn -0.614707 -0.369066 -0.697083
vn -0.889359 -0.217784 0.402008
vn -0.889359 -0.217784 0.402008
vn -0.06665 0.447923 0.891585
vn -0.06665 0.447922 0.891585
vn 0.703953 0.708281 0.052808
vn 0.703952 0.708281 0.05281
vn 0.484224 0.021439 -0.874681
vn 0.484224 0.021439 -0.874681
vn -0.431144 -0.669721 -0.604639
vn -0.431146 -0.669722 -0.604637
vn -0.772684 -0.406711 0.487386
vn -0.772685 -0.406711 0.487385
vn 0.808757 0.397114 -0.433835
vn 0.808757 0.397114 -0.433835
vn -0.30891 0.631259 -0.711397
vn -0.30891 0.631259 -0.711397
vn -0.999717 0.018233 0.0153
vn -0.999717 0.018233 0.0153
vn -0.308946 -0.594865 0.742083
vn -0.308946 -0.594865 0.742083
vn 0.808816 -0.360675 0.464467
vn 0.808817 -0.360675 0.464467
vn 0.805291 0.302637 -0.509821
vn 0.80529 0.302637 -0.509822
vn -0.303652 0.458559 -0.835176
vn -0.30365 0.458559 -0.835177
vn -0.998577 0.040845 0.034273
vn -0.998577 0.040845 0.034274
vn -0.29634 -0.369066 0.880893
vn -0.296338 -0.369066 0.880894
vn 0.792829 -0.217784 0.569203
vn 0.792829 -0.217784 0.569204
vn 0.80546 0.447923 -0.388072
vn 0.80546 0.447923 -0.388072
vn -0.30624 0.708281 -0.636046
vn -0.306244 0.708281 -0.636045
vn -0.999608 0.021439 0.01799
vn -0.999608 0.021439 0.01799
vn -0.308056 -0.669722 0.675702
vn -0.308061 -0.669721 0.675702
vn 0.808428 -0.406713 0.425474
vn 0.808431 -0.406711 0.425471

usemtl trunks_color_LPTree1
f 1/1/1 7/7/1 6/6/1
f 1/1/2 2/2/2 7/7/2
f 2/2/3 8/8/3 7/7/3
f 2/2/4 3/3/4 8/8/4
f 3/3/5 9/9/5 8/8/5
f 3/3/6 4/4/6 9/9/6
f 4/4/7 10/10/7 9/9/7
f 4/4/8 5/5/8 10/10/8
f 5/5/9 6/6/9 10/10/9
f 5/5/10 1/1/10 6/6/10
f 11/11/11 12/12/11 6/6/11
f 6/6/12 7/7/12 11/11/12
f 13/13/13 11/11/13 7/7/13
f 7/7/14 8/8/14 13/13/14
f 14/14/15 13/13/15 8/8/15
f 8/8/16 9/9/16 14/14/16
f 15/15/17 14/14/17 9/9/17
f 9/9/18 10/10/18 15/15/18
f 12/12/19 15/15/19 10/10/19
f 10/10/20 6/6/20 12/12/20
f 16/16/21 17/17/21 12/12/21
f 12/12/22 11/11/22 16/16/22
f 18/18/23 16/16/23 11/11/23
f 11/11/24 13/13/24 18/18/24
f 19/19/25 18/18/25 13/13/25
f 13/13/26 14/14/26 19/19/26
f 20/20/27 19/19/27 14/14/27
f 14/14/28 15/15/28 20/20/28
f 17/17/29 20/20/29 15/15/29
f 15/15/30 12/12/30 17/17/30
f 21/21/31 22/22/31 17/17/31
f 17/17/32 16/16/32 21/21/32
f 23/23/33 21/21/33 16/16/33
f 16/16/34 18/18/34 23/23/34
f 24/24/35 23/23/35 18/18/35
f 18/18/36 19/19/36 24/24/36
f 25/25/37 24/24/37 19/19/37
f 19/19/38 20/20/38 25/25/38
f 22/22/39 25/25/39 20/20/39
f 20/20/40 17/17/40 22/22/40
f 26/26/41 27/27/41 22/22/41
f 22/22/42 21/21/42 26/26/42
f 28/28/43 26/26/43 21/21/43
f 21/21/44 23/23/44 28/28/44
f 29/29/45 28/28/45 23/23/45
f 23/23/46 24/24/46 29/29/46
f 30/30/47 29/29/47 24/24/47
f 24/24/48 25/25/48 30/30/48
f 27/27/49 30/30/49 25/25/49
f 25/25/50 22/22/50 27/27/50
f 31/31/51 37/37/51 36/36/51
f 31/31/52 32/32/52 37/37/52
f 32/32/53 38/38/53 37/37/53
f 32/32/54 33/33/54 38/38/54
f 33/33/55 39/39/55 38/38/55
f 33/33/56 34/34/56 39/39/56
f 34/34/57 40/40/57 39/39/57
f 34/34/58 35/35/58 40/40/58
f 35/35/59 36/36/59 40/40/59
f 35/35/60 31/31/60 36/36/60
f 41/41/61 42/42/61 36/36/61
f 36/36/62 37/37/62 41/41/62
f 43/43/63 41/41/63 37/37/63
f 37/37/64 38/38/64 43/43/64
f 44/44/65 43/43/65 38/38/65
f 38/38/66 39/39/66 44/44/66
f 45/45/67 44/44/67 39/39/67
f 39/39/68 40/40/68 45/45/68
f 42/42/69 45/45/69 40/40/69
f 40/40/70 36/36/70 42/42/70
f 46/46/71 47/47/71 42/42/71
f 42/42/72 41/41/72 46/46/72
f 48/48/73 46/46/73 41/41/73
f 41/41/74 43/43/74 48/48/74
f 49/49/75 48/48/75 43/43/75
f 43/43/76 44/44/76 49/49/76
f 50/50/77 49/49/77 44/44/77
f 44/44/78 45/45/78 50/50/78
f 47/47/79 50/50/79 45/45/79
f 45/45/80 42/42/80 47/47/80
f 51/51/81 57/57/81 56/56/81
f 51/51/82 52/52/82 57/57/82
f 52/52/83 58/58/83 57/57/83
f 52/52/84 53/53/84 58/58/84
f 53/53/85 59/59/85 58/58/85
f 53/53/86 54/54/86 59/59/86
f 54/54/87 60/60/87 59/59/87
f 54/54/88 55/55/88 60/60/88
f 55/55/89 56/56/89 60/60/89
f 55/55/90 51/51/90 56/56/90
f 61/61/91 62/62/91 56/56/91
f 56/56/92 57/57/92 61/61/92
f 63/63/93 61/61/93 57/57/93
f 57/57/94 58/58/94 63/63/94
f 64/64/95 63/63/95 58/58/95
f 58/58/96 59/59/96 64/64/96
f 65/65/97 64/64/97 59/59/97
f 59/59/98 60/60/98 65/65/98
f 62/62/99 65/65/99 60/60/99
f 60/60/100 56/56/100 62/62/100
f 66/66/101 67/67/101 62/62/101
f 62/62/102 61/61/102 66/66/102
f 68/68/103 66/66/103 61/61/103
f 61/61/104 63/63/104 68/68/104
f 69/69/105 68/68/105 63/63/105
f 63/63/106 64/64/106 69/69/106
f 70/70/107 69/69/107 64/64/107
f 64/64/108 65/65/108 70/70/108
f 67/67/109 70/70/109 65/65/109
f 65/65/110 62/62/110 67/67/110

o leaves
v -57.3525 137.838 -33.321
v -76.0848 141.867 -42.2213
v -78.0047 141.877 -31.3866
v -74.2681 136.173 -21.0471
v -65.8762 134.84 -13.9733
v -55.0777 139.735 -12.0606
v -37.3074 141.555 -12.3436
v -2.55465 128.048 -7.85799
v -28.3256 141.987 -31.6052
v -37.7381 140.484 -49.2455
v -47.9126 135.705 -52.4964
v -58.7112 136.921 -54.4091
v -69.0229 142.309 -50.6481
v -96.6447 126.422 -52.1843
v -98.328 118.07 -16.6716
v -75.9532 125.936 -12.9045
v -68.117 120.688 16.5978
v -52.5604 128.854 -1.93085
v -39.4186 130.189 7.41807
v -10.5777 109.915 -11.9196
v -4.84215 109.898 -33.3409
v -27.2309 130.151 -50.5064
v -26.7728 122.185 -72.0652
v -58.8424 127.232 -63.2746
v -72.8611 139.214 -71.2857
v -106.242 107.422 -57.1453
v -102.275 94.5919 -15.8547
v -81.5091 95.5089 -10.5342
v -77.5649 102.715 18
v -50.3641 93.0318 4.06446
v -34.4594 89.8826 12.4056
v -15.5527 106.82 -14.7048
v -2.9238 96.3003 -36.0548
v -20.8662 94.5293 -53.4504
v -31.4074 104.444 -80.9851
v -57.6197 97.0064 -68.6265
v -74.4014 95.4565 -75.6299
v 1.55457 196.796 -6.4757
v 1.82708 204.129 -44.2201
v -17.5213 204.146 -39.0532
v -31.702 193.765 -24.937
v -36.9153 191.339 -5.65385
v -31.7644 200.248 13.6293
v -17.6293 203.561 42.7233
v 1.70234 178.978 103.497
v 21.0507 204.347 42.7233
v 42.9083 201.611 13.6293
v 40.4447 192.913 -5.65386
v 35.2938 195.127 -24.937
v 21.1587 204.933 -39.0532
v 2.44687 176.019 -85.7964
v -57.4253 160.818 -61.2579
v -46.4291 175.133 -21.4536
v -89.0652 165.582 14.1642
v -46.537 180.445 25.573
v -51.8497 182.874 54.4409
v 2.2308 145.975 87.1396
v 41.9765 145.945 80.1237
v 53.0699 182.805 29.9908
v 88.9831 168.308 14.1642
v 49.8164 177.493 -31.9726
v 52.2478 199.3 -61.2579
v 3.24784 141.439 -105.443
v -61.8087 118.088 -67.1401
v -54.6122 119.757 -28.7947
v -98.6452 132.872 -0.341349
v -54.7368 115.248 33.8071
v -56.2621 109.517 66.4574
v 2.99836 140.343 76.7912
v 47.9284 121.197 81.2006
v 62.8215 117.974 38.2249
v 100.132 136.019 -0.341367
v 59.5848 122.482 -34.0723
v 58.2287 119.661 -67.1401

vt 0.237162 0.654665 0.416904
vt 0.146484 0.697219 0.451891
vt 0.13719 0.645416 0.451974
vt 0.155278 0.59598 0.402443
vt 0.195901 0.562158 0.390871
vt 0.248174 0.553013 0.433377
vt 0.334195 0.554366 0.449179
vt 0.502424 0.532919 0.331898
vt 0.377673 0.646461 0.452932
vt 0.33211 0.730804 0.439878
vt 0.282858 0.746347 0.398378
vt 0.230585 0.755492 0.408944
vt 0.180669 0.73751 0.455727
vt 0.046959 0.744855 0.317779
vt 0.0388106 0.57506 0.245253
vt 0.147121 0.557048 0.313552
vt 0.185054 0.41599 0.267986
vt 0.26036 0.50458 0.338893
vt 0.323975 0.45988 0.350485
vt 0.463586 0.552339 0.17444
vt 0.491351 0.65476 0.174296
vt 0.382973 0.736833 0.350153
vt 0.38519 0.839911 0.280988
vt 0.22995 0.797881 0.324813
vt 0.162089 0.836184 0.428853
vt 0.000499636 0.768575 0.152798
vt 0.0197042 0.571154 0.0413916
vt 0.120227 0.545715 0.0493539
vt 0.139319 0.409285 0.111927
vt 0.270991 0.475915 0.027845
vt 0.347982 0.436034 0.000499487
vt 0.439504 0.565656 0.147573
vt 0.500637 0.667736 0.0562259
vt 0.413783 0.750909 0.0408475
vt 0.362756 0.882559 0.126941
vt 0.235869 0.82347 0.0623564
vt 0.154633 0.856955 0.0488985
vt 0.522315 0.52631 0.928841
vt 0.523635 0.706776 0.992517
vt 0.429974 0.682072 0.992669
vt 0.361329 0.614578 0.902523
vt 0.336093 0.522381 0.881462
vt 0.361027 0.430183 0.958822
vt 0.429451 0.291077 0.987582
vt 0.523031 0.000499457 0.774131
vt 0.616691 0.291077 0.994414
vt 0.722498 0.430183 0.970654
vt 0.710572 0.522381 0.895124
vt 0.685638 0.614578 0.914355
vt 0.617214 0.682072 0.9995
vt 0.526635 0.905563 0.748434
vt 0.23681 0.788239 0.616438
vt 0.290039 0.597924 0.740742
vt 0.0836496 0.427625 0.65781
vt 0.289517 0.373077 0.786862
vt 0.2638 0.235052 0.807959
vt 0.525589 0.078711 0.487558
vt 0.717987 0.112256 0.487296
vt 0.771687 0.351954 0.807356
vt 0.945533 0.427625 0.681475
vt 0.755938 0.648217 0.761236
vt 0.767708 0.788239 0.950589
vt 0.530512 0.999501 0.448169
vt 0.215591 0.816363 0.245409
vt 0.250427 0.633023 0.259901
vt 0.0372753 0.49698 0.373784
vt 0.249824 0.333708 0.220755
vt 0.242441 0.177598 0.170986
vt 0.529304 0.128189 0.438659
vt 0.746799 0.107107 0.272408
vt 0.818892 0.312585 0.244419
vt 0.9995 0.49698 0.40111
vt 0.803224 0.658257 0.283565
vt 0.79666 0.816363 0.259072

vn 0.194857 0.980254 0.03366
vn 0.211904 0.886077 0.412266
vn 0.02028 0.986612 0.161817
vn -0.407007 0.912639 -0.037889
vn -0.102793 0.99168 -0.077492
vn 0.369735 0.787643 -0.492864
vn -0.147115 0.775021 0.614572
vn -0.140972 0.989971 -0.009153
vn -0.338512 0.902275 -0.267037
vn 0.120727 0.991381 -0.050873
vn 0.442623 0.894172 -0.067387
vn 0.132985 0.97767 0.162712
vn -0.638722 0.755198 0.147345
vn -0.794358 0.590792 -0.141281
vn -0.3493 0.690013 0.633933
vn -0.659635 0.531364 0.531539
vn -0.873813 0.382572 0.300148
vn -0.195149 0.895407 0.400205
vn 0.026259 0.906431 0.421537
vn -0.389037 0.577879 0.71743
vn -0.533242 0.507042 0.677172
vn -0.081053 0.867711 0.490416
vn 0.692697 0.590733 0.41377
vn -0.179602 -0.138675 0.973916
vn 0.86894 -0.436641 0.232997
vn 0.708723 0.543016 -0.450384
vn 0.757967 0.571683 -0.314109
vn 0.62159 0.679595 -0.389586
vn 0.664323 0.705599 -0.246586
vn -0.136916 0.739658 -0.658908
vn -0.03651 0.803322 -0.594425
vn 0.202534 0.659574 -0.723838
vn 0.70572 0.473046 -0.527434
vn 0.392541 0.896048 -0.207386
vn -0.496645 0.867136 -0.037678
vn -0.45501 0.823798 -0.338115
vn -0.893736 0.396837 0.209181
vn -0.986175 0.16552 -0.007815
vn -0.250618 0.075715 0.965121
vn -0.203436 0.112911 0.972556
vn -0.978643 0.185586 0.088404
vn -0.833435 0.461806 0.303516
vn 0.409729 -0.145122 0.90059
vn 0.721144 0.157139 0.674728
vn -0.442003 0.121641 0.888728
vn -0.58139 0.02908 0.813105
vn 0.754716 0.171227 0.633313
vn 0.012981 -0.680405 0.732721
vn 0.21332 -0.82044 0.530446
vn 0.962546 0.084373 0.257656
vn 0.664466 0.235307 -0.709307
vn 0.696598 0.181827 -0.694039
vn 0.937667 0.191508 -0.29001
vn 0.939703 -0.313823 0.135918
vn -0.481595 0.490854 -0.726036
vn -0.237443 0.160045 -0.958127
vn 0.365137 0.176615 -0.914047
vn 0.536217 0.064677 -0.841599
vn -0.469964 0.103569 -0.876588
vn -0.690859 0.488211 -0.533258
vn 0.051844 0.980254 0.190826
vn -0.284087 0.886077 0.366282
vn -0.138086 0.986612 0.086766
vn -0.137669 0.912639 -0.384886
vn 0.026789 0.99168 -0.125912
vn 0.602943 0.787643 0.1268
vn -0.619165 0.775022 0.126397
vn -0.051282 0.989971 -0.131632
vn 0.098956 0.902275 -0.419651
vn 0.097127 0.991381 0.087915
vn 0.248133 0.894172 0.372674
vn -0.091265 0.97767 0.189291
vn -0.403475 0.755198 -0.516608
vn -0.207666 0.590792 -0.779641
vn -0.722159 0.690013 -0.048662
vn -0.760512 0.531364 -0.373194
vn -0.641316 0.382573 -0.665096
vn -0.445183 0.895406 -0.007732
vn -0.370945 0.906431 0.201947
vn -0.814626 0.577879 -0.049389
vn -0.839084 0.507042 -0.197096
vn -0.478722 0.867711 0.133799
vn -0.082257 0.590733 0.802664
vn -0.958571 -0.138675 0.24882
vn 0.156063 -0.43664 0.885996
vn 0.707706 0.543016 0.45198
vn 0.60501 0.571683 0.554204
vn 0.61578 0.679595 0.398706
vn 0.504238 0.705599 0.49787
vn 0.539311 0.739658 -0.402555
vn 0.523302 0.803322 -0.284304
vn 0.741614 0.659575 -0.12235
vn 0.776268 0.473046 0.416697
vn 0.353851 0.896048 0.268119
vn -0.175743 0.867136 -0.466037
vn 0.114141 0.823798 -0.555273
vn -0.567291 0.396837 -0.721596
vn -0.409693 0.16552 -0.897081
vn -0.980612 0.075715 0.180741
vn -0.967411 0.112911 0.226644
vn -0.493714 0.185586 -0.849591
vn -0.627304 0.461806 -0.627077
vn -0.643052 -0.145122 0.751946
vn -0.306743 0.157139 0.938731
vn -0.992259 0.121641 -0.024999
vn -0.982629 0.02908 -0.183286
vn -0.25502 0.171227 0.951654
vn -0.658585 -0.680405 0.321426
vn -0.390594 -0.82044 0.41751
vn 0.173274 0.084373 0.981253
vn 0.923665 0.235307 0.302445
vn 0.923408 0.181827 0.338019
vn 0.659113 0.191508 0.727252
vn 0.273952 -0.313823 0.909101
vn 0.454481 0.490854 -0.743309
vn 0.76801 0.160045 -0.620118
vn 0.982722 0.176615 -0.055366
vn 0.989362 0.064677 0.130303
vn 0.595843 0.10357 -0.796394
vn 0.191327 0.488211 -0.851495

usemtl leaves_color_LPTree1
f 71/71/111 72/72/111 73/73/111
f 71/71/112 73/73/112 74/74/112
f 71/71/113 74/74/113 75/75/113
f 71/71/114 75/75/114 76/76/114
f 71/71/115 76/76/115 77/77/115
f 71/71/116 77/77/116 78/78/116
f 71/71/117 78/78/117 79/79/117
f 71/71/118 79/79/118 80/80/118
f 71/71/119 80/80/119 81/81/119
f 71/71/120 81/81/120 82/82/120
f 71/71/121 82/82/121 83/83/121
f 71/71/122 83/83/122 72/72/122
f 72/72/123 84/84/123 85/85/123
f 72/72/124 85/85/124 73/73/124
f 73/73/125 85/85/125 86/86/125
f 73/73/126 86/86/126 74/74/126
f 74/74/127 86/86/127 87/87/127
f 74/74/128 87/87/128 75/75/128
f 75/75/129 87/87/129 88/88/129
f 75/75/130 88/88/130 76/76/130
f 76/76/131 88/88/131 89/89/131
f 76/76/132 89/89/132 77/77/132
f 77/77/133 89/89/133 90/90/133
f 77/77/134 90/90/134 78/78/134
f 78/78/135 90/90/135 91/91/135
f 78/78/136 91/91/136 79/79/136
f 79/79/137 91/91/137 92/92/137
f 79/79/138 92/92/138 80/80/138
f 80/80/139 92/92/139 93/93/139
f 80/80/140 93/93/140 81/81/140
f 81/81/141 93/93/141 94/94/141
f 81/81/142 94/94/142 82/82/142
f 82/82/143 94/94/143 95/95/143
f 82/82/144 95/95/144 83/83/144
f 83/83/145 95/95/145 84/84/145
f 83/83/146 84/84/146 72/72/146
f 84/84/147 96/96/147 97/97/147
f 84/84/148 97/97/148 85/85/148
f 85/85/149 97/97/149 98/98/149
f 85/85/150 98/98/150 86/86/150
f 86/86/151 98/98/151 99/99/151
f 86/86/152 99/99/152 87/87/152
f 87/87/153 99/99/153 100/100/153
f 87/87/154 100/100/154 88/88/154
f 88/88/155 100/100/155 101/101/155
f 88/88/156 101/101/156 89/89/156
f 89/89/157 101/101/157 102/102/157
f 89/89/158 102/102/158 90/90/158
f 90/90/159 102/102/159 103/103/159
f 90/90/160 103/103/160 91/91/160
f 91/91/161 103/103/161 104/104/161
f 91/91/162 104/104/162 92/92/162
f 92/92/163 104/104/163 105/105/163
f 92/92/164 105/105/164 93/93/164
f 93/93/165 105/105/165 106/106/165
f 93/93/166 106/106/166 94/94/166
f 94/94/167 106/106/167 107/107/167
f 94/94/168 107/107/168 95/95/168
f 95/95/169 107/107/169 96/96/169
f 95/95/170 96/96/170 84/84/170
f 108/108/171 109/109/171 110/110/171
f 108/108/172 110/110/172 111/111/172
f 108/108/173 111/111/173 112/112/173
f 108/108/174 112/112/174 113/113/174
f 108/108/175 113/113/175 114/114/175
f 108/108/176 114/114/176 115/115/176
f 108/108/177 115/115/177 116/116/177
f 108/108/178 116/116/178 117/117/178
f 108/108/179 117/117/179 118/118/179
f 108/108/180 118/118/180 119/119/180
f 108/108/181 119/119/181 120/120/181
f 108/108/182 120/120/182 109/109/182
f 109/109/183 121/121/183 122/122/183
f 109/109/184 122/122/184 110/110/184
f 110/110/185 122/122/185 123/123/185
f 110/110/186 123/123/186 111/111/186
f 111/111/187 123/123/187 124/124/187
f 111/111/188 124/124/188 112/112/188
f 112/112/189 124/124/189 125/125/189
f 112/112/190 125/125/190 113/113/190
f 113/113/191 125/125/191 126/126/191
f 113/113/192 126/126/192 114/114/192
f 114/114/193 126/126/193 127/127/193
f 114/114/194 127/127/194 115/115/194
f 115/115/195 127/127/195 128/128/195
f 115/115/196 128/128/196 116/116/196
f 116/116/197 128/128/197 129/129/197
f 116/116/198 129/129/198 117/117/198
f 117/117/199 129/129/199 130/130/199
f 117/117/200 130/130/200 118/118/200
f 118/118/201 130/130/201 131/131/201
f 118/118/202 131/131/202 119/119/202
f 119/119/203 131/131/203 132/132/203
f 119/119/204 132/132/204 120/120/204
f 120/120/205 132/132/205 121/121/205
f 120/120/206 121/121/206 109/109/206
f 121/121/207 133/133/207 134/134/207
f 121/121/208 134/134/208 122/122/208
f 122/122/209 134/134/209 135/135/209
f 122/122/210 135/135/210 123/123/210
f 123/123/211 135/135/211 136/136/211
f 123/123/212 136/136/212 124/124/212
f 124/124/213 136/136/213 137/137/213
f 124/124/214 137/137/214 125/125/214
f 125/125/215 137/137/215 138/138/215
f 125/125/216 138/138/216 126/126/216
f 126/126/217 138/138/217 139/139/217
f 126/126/218 139/139/218 127/127/218
f 127/127/219 139/139/219 140/140/219
f 127/127/220 140/140/220 128/128/220
f 128/128/221 140/140/221 141/141/221
f 128/128/222 141/141/222 129/129/222
f 129/129/223 141/141/223 142/142/223
f 129/129/224 142/142/224 130/130/224
f 130/130/225 142/142/225 143/143/225
f 130/130/226 143/143/226 131/131/226
f 131/131/227 143/143/227 144/144/227
f 131/131/228 144/144/228 132/132/228
f 132/132/229 144/144/229 133/133/229
f 132/132/230 133/133/230 121/121/230